<?xml version="1.0" encoding="utf-8"?>
<!-- Generator: Adobe Illustrator 16.0.0, SVG Export Plug-In . SVG Version: 6.00 Build 0)  -->
<!DOCTYPE svg PUBLIC "-//W3C//DTD SVG 1.1//EN" "http://www.w3.org/Graphics/SVG/1.1/DTD/svg11.dtd">
<svg version="1.1" id="Layer_1" xmlns="http://www.w3.org/2000/svg" xmlns:xlink="http://www.w3.org/1999/xlink" x="0px" y="0px"
	 width="152px" height="50px" viewBox="224 175 152 50" enable-background="new 224 175 152 50" xml:space="preserve">
<g>
	<path fill="#DDDDDD" d="M294.519,183.745c-0.411,0.169-0.822,0.345-1.24,0.506c-2.789,1.064-5.577,2.136-8.373,3.192
		c-0.147,0.059-0.316,0.073-0.477,0.073c-10.23,0-20.46,0-30.691,0c-7.815,0-15.631,0-23.447,0c-0.103,0-0.198,0-0.316,0
		c0,7.86,0,15.69,0,23.551c-1.262,0-2.502,0-3.779,0c0-9.101,0-18.215,0-27.323C248.968,183.745,271.748,183.745,294.519,183.745z"
		/>
	<path fill="#DDDDDD" d="M301.646,216.255c-22.86,0-45.721,0-68.581,0c0-0.014-0.007-0.021-0.007-0.037
		c0.257-0.102,0.514-0.197,0.771-0.293c2.95-1.131,5.9-2.254,8.851-3.375c0.132-0.053,0.286-0.059,0.433-0.059
		c7.133,0,14.267,0,21.4,0c11.06,0,22.126,0,33.186,0c0.096,0,0.198,0,0.316,0c0-7.766,0-15.515,0-23.287c1.226,0,2.429,0,3.641,0
		C301.646,198.217,301.646,207.236,301.646,216.255z"/>
	<path fill="#DDDDDD" d="M245.247,189.198c1.196,0,2.349,0,3.522,0c0.007,0.073,0.015,0.139,0.015,0.206
		c0,4.66,0.007,9.313-0.008,13.973c-0.007,1.732-0.455,3.346-1.526,4.74c-1.093,1.424-2.561,2.26-4.286,2.65
		c-2.224,0.506-4.447,0.498-6.605-0.295c-2.62-0.961-4.109-2.898-4.572-5.629c-0.103-0.631-0.14-1.283-0.14-1.922
		c-0.015-4.469-0.007-8.939-0.007-13.416c0-0.095,0-0.184,0-0.293c1.174,0,2.341,0,3.552,0c0,0.088,0,0.184,0,0.286
		c0,4.396,0,8.785,0,13.181c0,0.807,0.059,1.615,0.287,2.393c0.411,1.408,1.313,2.334,2.73,2.723
		c1.27,0.344,2.546,0.367,3.823,0.051c1.673-0.418,2.657-1.525,3.016-3.186c0.118-0.535,0.184-1.092,0.191-1.636
		c0.015-4.506,0.007-9.02,0.007-13.533C245.247,189.403,245.247,189.308,245.247,189.198z"/>
	<path fill="#DDDDDD" d="M285.111,207.779c3.765,0,7.479,0,11.214,0c0,1.006,0,2.004,0,3.018c-5.137,0-10.274,0-15.426,0
		c-0.007-0.037-0.022-0.082-0.022-0.125c0-0.727-0.007-1.461,0.007-2.188c0-0.104,0.059-0.221,0.118-0.316
		c3.5-5.188,7.001-10.376,10.509-15.564c0.074-0.11,0.154-0.228,0.25-0.375c-3.669,0-7.287,0-10.92,0c0-1.013,0-2.003,0-3.016
		c5.049,0,10.105,0,15.191,0c0,0.073,0.007,0.154,0.007,0.235c0,0.661,0.007,1.321-0.007,1.981c0,0.154-0.051,0.323-0.14,0.448
		c-3.537,5.218-7.082,10.436-10.626,15.654C285.221,207.595,285.177,207.669,285.111,207.779z"/>
	<path fill="#DDDDDD" d="M270.155,192.228c-2.143,0-4.234,0-6.348,0c0-1.005,0-2.003,0-3.016c5.101,0,10.208,0,15.323,0
		c0,0.991,0,1.981,0,3.009c-1.805,0-3.61,0-5.445,0c0,6.201,0,12.38,0,18.567c-1.182,0-2.341,0-3.53,0
		C270.155,204.616,270.155,198.429,270.155,192.228z"/>
	<path fill="#DDDDDD" d="M264.724,207.773c0,1.027,0,2.018,0,3.023c-4.227,0-8.439,0-12.667,0c0-7.193,0-14.377,0-21.584
		c1.167,0,2.333,0,3.515,0c0,6.179,0,12.352,0,18.561C258.633,207.773,261.671,207.773,264.724,207.773z"/>
</g>
<g>
	<path fill="#DDDDDD" d="M311.199,210.787v-21.456h7.392c1.668,0,2.941,0.102,3.819,0.307c1.229,0.283,2.278,0.795,3.147,1.537
		c1.132,0.957,1.978,2.179,2.539,3.667c0.562,1.488,0.842,3.188,0.842,5.101c0,1.63-0.19,3.074-0.571,4.333
		c-0.38,1.258-0.868,2.299-1.463,3.123c-0.596,0.826-1.247,1.475-1.954,1.947c-0.708,0.473-1.562,0.832-2.562,1.076
		s-2.149,0.365-3.447,0.365H311.199z M314.039,208.256h4.581c1.414,0,2.524-0.133,3.329-0.396c0.806-0.262,1.447-0.633,1.925-1.111
		c0.674-0.674,1.198-1.578,1.573-2.715c0.376-1.137,0.563-2.516,0.563-4.135c0-2.244-0.368-3.969-1.104-5.174
		c-0.737-1.205-1.632-2.012-2.686-2.422c-0.762-0.292-1.986-0.439-3.674-0.439h-4.508V208.256z"/>
	<path fill="#DDDDDD" d="M331.529,203.016c0-2.878,0.8-5.01,2.4-6.396c1.337-1.151,2.966-1.727,4.889-1.727
		c2.137,0,3.884,0.7,5.239,2.1c1.356,1.4,2.035,3.335,2.035,5.804c0,2-0.3,3.572-0.9,4.719c-0.6,1.146-1.474,2.037-2.62,2.672
		s-2.397,0.951-3.754,0.951c-2.176,0-3.935-0.697-5.276-2.094C332.2,207.651,331.529,205.641,331.529,203.016z M334.237,203.016
		c0,1.99,0.434,3.48,1.303,4.471c0.868,0.992,1.961,1.486,3.278,1.486c1.308,0,2.396-0.498,3.264-1.492
		c0.868-0.996,1.303-2.514,1.303-4.553c0-1.922-0.437-3.378-1.31-4.369c-0.874-0.99-1.959-1.486-3.257-1.486
		c-1.317,0-2.41,0.493-3.278,1.479C334.671,199.537,334.237,201.026,334.237,203.016z"/>
	<path fill="#DDDDDD" d="M359.323,205.094l2.59,0.338c-0.282,1.785-1.007,3.182-2.173,4.191c-1.166,1.012-2.598,1.516-4.296,1.516
		c-2.127,0-3.837-0.695-5.13-2.086s-1.939-3.383-1.939-5.979c0-1.678,0.278-3.147,0.834-4.405c0.557-1.259,1.403-2.203,2.54-2.833
		c1.137-0.629,2.373-0.944,3.71-0.944c1.688,0,3.068,0.427,4.142,1.281s1.762,2.066,2.064,3.637l-2.562,0.395
		c-0.244-1.044-0.676-1.83-1.296-2.356c-0.619-0.527-1.368-0.791-2.246-0.791c-1.327,0-2.405,0.476-3.234,1.427
		c-0.83,0.951-1.244,2.457-1.244,4.515c0,2.089,0.399,3.606,1.2,4.552c0.8,0.947,1.844,1.42,3.132,1.42
		c1.034,0,1.897-0.316,2.591-0.951C358.698,207.387,359.138,206.412,359.323,205.094z"/>
	<path fill="#DDDDDD" d="M363.114,206.149l2.605-0.41c0.146,1.045,0.554,1.844,1.222,2.4c0.669,0.557,1.604,0.834,2.804,0.834
		c1.209,0,2.107-0.246,2.692-0.738c0.586-0.494,0.879-1.072,0.879-1.734c0-0.596-0.259-1.064-0.776-1.406
		c-0.361-0.234-1.259-0.531-2.693-0.893c-1.932-0.488-3.271-0.91-4.018-1.266c-0.746-0.356-1.313-0.85-1.697-1.479
		c-0.386-0.629-0.578-1.325-0.578-2.086c0-0.692,0.158-1.334,0.476-1.924s0.749-1.081,1.295-1.471
		c0.41-0.302,0.969-0.559,1.676-0.768c0.708-0.21,1.467-0.315,2.276-0.315c1.22,0,2.291,0.176,3.213,0.527
		c0.922,0.352,1.603,0.827,2.042,1.427c0.438,0.6,0.741,1.403,0.907,2.408l-2.576,0.351c-0.117-0.8-0.456-1.424-1.018-1.874
		c-0.561-0.449-1.354-0.673-2.378-0.673c-1.21,0-2.074,0.2-2.591,0.6c-0.518,0.4-0.775,0.869-0.775,1.405
		c0,0.342,0.107,0.649,0.321,0.922c0.215,0.283,0.552,0.518,1.011,0.703c0.263,0.098,1.039,0.322,2.327,0.673
		c1.863,0.498,3.163,0.906,3.9,1.223c0.736,0.317,1.314,0.777,1.734,1.383c0.419,0.605,0.629,1.357,0.629,2.254
		c0,0.879-0.256,1.705-0.769,2.48c-0.512,0.777-1.251,1.377-2.217,1.801s-2.06,0.637-3.278,0.637c-2.021,0-3.56-0.42-4.618-1.258
		C364.083,209.041,363.407,207.797,363.114,206.149z"/>
</g>
</svg>
